# Blender v3.0.1 OBJ File: 'lowpolybird.blend'
# www.blender.org
mtllib lowpolybird.mtl
o Cube_Cube.001
v -0.323247 -0.045955 0.451389
v -0.323247 0.045955 0.451389
v -0.301926 -0.226644 -1.111857
v -0.301926 -0.134734 -1.111857
v -3.662718 0.144191 0.676753
v -3.662718 0.236101 0.676753
v -4.841285 -0.045955 -0.207143
v -4.841285 0.045955 -0.230838
v -0.323247 -0.045955 -0.000000
v -0.323247 0.000000 0.451389
v -0.323247 0.045955 -0.000000
v -0.301926 -0.180689 -1.111857
v -0.831413 0.042828 -0.870391
v -0.831413 0.134738 -0.870391
v -4.841285 0.000000 -0.230838
v -4.933167 -0.045955 -0.000000
v -4.943735 0.045955 -0.000000
v -3.662718 0.190146 0.676753
v -1.642072 0.242573 0.980801
v -1.642072 0.334482 0.980801
v -1.617932 0.290645 -0.000000
v -1.617932 0.198736 -0.000000
v -1.642072 0.288527 0.980801
v -4.943735 0.000000 -0.000000
v -0.831413 0.088783 -0.870391
v -0.323247 0.000000 -0.000000
v -1.220978 0.123713 -0.000000
v -1.001493 0.042474 -0.972269
v -1.011595 -0.003361 -0.970245
v -1.252560 0.087685 -0.367765
v -0.996184 0.088365 -0.973332
v -4.536844 -0.016019 -0.000000
v -3.766054 0.040691 -0.000000
v -3.149336 0.086065 -0.000000
v -2.453701 0.137245 -0.000000
v -1.161563 0.024489 -0.970065
v -1.604649 -0.027917 -0.882970
v -1.702898 -0.059511 -0.863117
v -2.621611 -0.093073 -0.720847
v -2.840885 -0.093863 -0.681234
v -3.403207 -0.072509 -0.484893
v -3.594435 -0.073779 -0.450766
v -4.043353 -0.042031 -0.352095
v -4.146814 -0.037237 -0.340142
v -4.707520 -0.018447 -0.267436
v -4.704704 -0.064636 -0.250299
v -4.165585 -0.082969 -0.336382
v -4.029699 -0.088368 -0.350292
v -3.603833 -0.119622 -0.448883
v -3.377986 -0.118764 -0.489945
v -2.858206 -0.139612 -0.677764
v -2.610857 -0.139156 -0.723001
v -1.709834 -0.105383 -0.861728
v -1.599618 -0.073932 -0.883977
v -1.165208 -0.021422 -0.969335
v -1.786547 0.256602 -0.000000
v -2.827653 0.201642 -0.000000
v -3.457827 0.155278 -0.000000
v -4.138545 0.105195 -0.000000
v -4.745377 0.060549 -0.000000
v -1.160824 0.070435 -0.970213
v -1.604156 0.018032 -0.883068
v -1.698408 -0.013609 -0.864017
v -2.629321 -0.047027 -0.719302
v -2.822962 -0.048121 -0.684824
v -3.435283 -0.026173 -0.478467
v -3.581239 -0.027981 -0.453409
v -4.061193 0.004361 -0.353894
v -4.127630 0.008489 -0.343985
v -4.724648 0.027912 -0.260626
v -1.559244 0.193602 -0.410948
v -1.570361 0.123848 -0.349127
v -1.553823 0.147969 -0.412632
v -2.349504 0.023419 -0.286030
v -2.350021 0.069434 -0.286002
v -2.351481 0.115410 -0.285715
v -2.340375 0.227365 -0.000000
v -3.090355 0.113245 -0.160766
v -3.108665 0.180967 -0.000000
v -3.104239 0.029455 -0.151628
v -3.098855 0.067921 -0.156173
v -3.803283 0.089576 -0.125070
v -3.816884 0.044700 -0.120467
v -3.834463 0.000232 -0.114328
v -3.801318 0.130006 -0.000000
v -4.412755 0.010322 -0.131771
v -4.417976 -0.035494 -0.130354
v -4.345502 0.089969 -0.000000
v -4.405033 0.055959 -0.134419
v 0.323247 -0.045955 0.451389
v 0.323247 0.045955 0.451389
v 0.301926 -0.226644 -1.111857
v 0.301926 -0.134734 -1.111857
v 3.662718 0.144191 0.676753
v 3.662718 0.236101 0.676753
v 4.841285 -0.045955 -0.207143
v 4.841285 0.045955 -0.230838
v 0.323247 -0.045955 -0.000000
v 0.323247 0.000000 0.451389
v 0.323247 0.045955 -0.000000
v 0.301926 -0.180689 -1.111857
v 0.831413 0.042828 -0.870391
v 0.831413 0.134738 -0.870391
v 4.841285 0.000000 -0.230838
v 4.933167 -0.045955 -0.000000
v 4.943735 0.045955 -0.000000
v 3.662718 0.190146 0.676753
v 1.642072 0.242573 0.980801
v 1.642072 0.334482 0.980801
v 1.617932 0.290645 -0.000000
v 1.617932 0.198736 -0.000000
v 1.642072 0.288527 0.980801
v 4.943735 0.000000 -0.000000
v 0.831413 0.088783 -0.870391
v 0.323247 0.000000 -0.000000
v 1.220978 0.123713 -0.000000
v 1.001493 0.042474 -0.972269
v 1.011595 -0.003361 -0.970245
v 1.252560 0.087685 -0.367765
v 0.996184 0.088365 -0.973332
v 4.536844 -0.016019 -0.000000
v 3.766054 0.040691 -0.000000
v 3.149336 0.086065 -0.000000
v 2.453701 0.137245 -0.000000
v 1.161563 0.024489 -0.970065
v 1.604649 -0.027917 -0.882970
v 1.702898 -0.059511 -0.863117
v 2.621611 -0.093073 -0.720847
v 2.840885 -0.093863 -0.681234
v 3.403207 -0.072509 -0.484893
v 3.594435 -0.073779 -0.450766
v 4.043353 -0.042031 -0.352095
v 4.146814 -0.037237 -0.340142
v 4.707520 -0.018447 -0.267436
v 4.704704 -0.064636 -0.250299
v 4.165585 -0.082969 -0.336382
v 4.029699 -0.088368 -0.350292
v 3.603833 -0.119622 -0.448883
v 3.377986 -0.118764 -0.489945
v 2.858206 -0.139612 -0.677764
v 2.610857 -0.139156 -0.723001
v 1.709834 -0.105383 -0.861728
v 1.599618 -0.073932 -0.883977
v 1.165208 -0.021422 -0.969335
v 1.786547 0.256602 -0.000000
v 2.827653 0.201642 -0.000000
v 3.457827 0.155278 -0.000000
v 4.138545 0.105195 -0.000000
v 4.745377 0.060549 -0.000000
v 1.160824 0.070435 -0.970213
v 1.604156 0.018032 -0.883068
v 1.698408 -0.013609 -0.864017
v 2.629321 -0.047027 -0.719302
v 2.822962 -0.048121 -0.684824
v 3.435283 -0.026173 -0.478467
v 3.581239 -0.027981 -0.453409
v 4.061193 0.004361 -0.353894
v 4.127630 0.008489 -0.343985
v 4.724648 0.027912 -0.260626
v 1.559244 0.193602 -0.410948
v 1.570361 0.123848 -0.349127
v 1.553823 0.147969 -0.412632
v 2.349504 0.023419 -0.286030
v 2.350021 0.069434 -0.286002
v 2.351481 0.115410 -0.285715
v 2.340375 0.227365 -0.000000
v 3.090355 0.113245 -0.160766
v 3.108665 0.180967 -0.000000
v 3.104239 0.029455 -0.151628
v 3.098855 0.067921 -0.156173
v 3.803283 0.089576 -0.125070
v 3.816884 0.044700 -0.120467
v 3.834463 0.000232 -0.114328
v 3.801318 0.130006 -0.000000
v 4.412755 0.010322 -0.131771
v 4.417976 -0.035494 -0.130354
v 4.345502 0.089969 -0.000000
v 4.405033 0.055959 -0.134419
vt 0.500000 0.125000
vt 0.500000 0.250000
vt 0.625000 0.250000
vt 0.625000 0.125000
vt 0.500000 0.375000
vt 0.500000 0.394966
vt 0.625000 0.394809
vt 0.625000 0.375000
vt 0.500000 0.625000
vt 0.500000 0.750000
vt 0.625000 0.750000
vt 0.625000 0.625000
vt 0.500000 0.875000
vt 0.500000 1.000000
vt 0.625000 1.000000
vt 0.625000 0.875000
vt 0.250000 0.625000
vt 0.250000 0.750000
vt 0.375000 0.750000
vt 0.375000 0.625000
vt 0.359707 0.625000
vt 0.330737 0.625000
vt 0.307558 0.625000
vt 0.281412 0.625000
vt 0.750000 0.625000
vt 0.750000 0.750000
vt 0.875000 0.750000
vt 0.875000 0.625000
vt 0.732609 0.625000
vt 0.717673 0.625000
vt 0.704533 0.625000
vt 0.693971 0.625000
vt 0.680848 0.625000
vt 0.667938 0.625000
vt 0.655263 0.625000
vt 0.647484 0.625000
vt 0.632455 0.625000
vt 0.625000 0.500000
vt 0.631949 0.500000
vt 0.750000 0.500000
vt 0.875000 0.500000
vt 0.125000 0.625000
vt 0.125000 0.750000
vt 0.211675 0.625000
vt 0.125000 0.500000
vt 0.250000 0.577943
vt 0.250000 0.500000
vt 0.270265 0.500000
vt 0.375000 0.875000
vt 0.375000 1.000000
vt 0.375000 0.500000
vt 0.500000 0.500000
vt 0.375000 0.375000
vt 0.375000 0.395265
vt 0.375000 0.250000
vt 0.375000 0.125000
vt 0.375000 0.000000
vt 0.500000 0.000000
vt 0.625000 0.000000
vt 0.730191 0.500000
vt 0.283668 0.500000
vt 0.500000 0.408560
vt 0.625000 0.408539
vt 0.375000 0.408668
vt 0.292787 0.500000
vt 0.284985 0.500000
vt 0.303408 0.500000
vt 0.311159 0.500000
vt 0.307265 0.500000
vt 0.322580 0.500000
vt 0.339580 0.500000
vt 0.329129 0.500000
vt 0.358837 0.500000
vt 0.345477 0.500000
vt 0.366464 0.500000
vt 0.362262 0.500000
vt 0.342462 0.500000
vt 0.326103 0.500000
vt 0.500000 0.409784
vt 0.625000 0.409820
vt 0.500000 0.417935
vt 0.500000 0.428203
vt 0.625000 0.428071
vt 0.625000 0.417921
vt 0.500000 0.432311
vt 0.625000 0.432356
vt 0.500000 0.436477
vt 0.500000 0.447069
vt 0.625000 0.446539
vt 0.625000 0.436704
vt 0.500000 0.451091
vt 0.625000 0.451101
vt 0.500000 0.454874
vt 0.500000 0.464303
vt 0.625000 0.463913
vt 0.625000 0.455822
vt 0.500000 0.467421
vt 0.625000 0.467363
vt 0.500000 0.471428
vt 0.500000 0.483283
vt 0.625000 0.482716
vt 0.625000 0.472514
vt 0.500000 0.487161
vt 0.625000 0.487093
vt 0.500000 0.492046
vt 0.625000 0.493051
vt 0.375000 0.409985
vt 0.375000 0.417787
vt 0.375000 0.428408
vt 0.375000 0.432265
vt 0.375000 0.436159
vt 0.375000 0.447580
vt 0.375000 0.451103
vt 0.375000 0.454129
vt 0.375000 0.464580
vt 0.375000 0.467462
vt 0.375000 0.470477
vt 0.375000 0.483837
vt 0.375000 0.487262
vt 0.375000 0.491464
vt 0.637907 0.500000
vt 0.657637 0.500000
vt 0.652486 0.500000
vt 0.673899 0.500000
vt 0.669178 0.500000
vt 0.692644 0.500000
vt 0.688296 0.500000
vt 0.715181 0.500000
vt 0.707079 0.500000
vt 0.716461 0.500000
vt 0.696929 0.500000
vt 0.678461 0.500000
vt 0.661087 0.500000
vt 0.642284 0.500000
vt 0.500000 0.125000
vt 0.625000 0.125000
vt 0.625000 0.250000
vt 0.500000 0.250000
vt 0.500000 0.375000
vt 0.625000 0.375000
vt 0.625000 0.394809
vt 0.500000 0.394966
vt 0.500000 0.625000
vt 0.625000 0.625000
vt 0.625000 0.750000
vt 0.500000 0.750000
vt 0.500000 0.875000
vt 0.625000 0.875000
vt 0.625000 1.000000
vt 0.500000 1.000000
vt 0.250000 0.625000
vt 0.281412 0.625000
vt 0.307558 0.625000
vt 0.330737 0.625000
vt 0.359707 0.625000
vt 0.375000 0.625000
vt 0.375000 0.750000
vt 0.250000 0.750000
vt 0.750000 0.625000
vt 0.875000 0.625000
vt 0.875000 0.750000
vt 0.750000 0.750000
vt 0.632455 0.625000
vt 0.647484 0.625000
vt 0.655263 0.625000
vt 0.667938 0.625000
vt 0.680848 0.625000
vt 0.693971 0.625000
vt 0.704533 0.625000
vt 0.717673 0.625000
vt 0.732609 0.625000
vt 0.625000 0.500000
vt 0.631949 0.500000
vt 0.750000 0.500000
vt 0.875000 0.500000
vt 0.125000 0.625000
vt 0.211675 0.625000
vt 0.125000 0.750000
vt 0.125000 0.500000
vt 0.250000 0.500000
vt 0.250000 0.577943
vt 0.270265 0.500000
vt 0.375000 0.875000
vt 0.375000 1.000000
vt 0.375000 0.500000
vt 0.500000 0.500000
vt 0.375000 0.375000
vt 0.375000 0.395265
vt 0.375000 0.250000
vt 0.375000 0.125000
vt 0.375000 0.000000
vt 0.500000 0.000000
vt 0.625000 0.000000
vt 0.730191 0.500000
vt 0.283668 0.500000
vt 0.625000 0.408539
vt 0.500000 0.408560
vt 0.375000 0.408668
vt 0.284985 0.500000
vt 0.292787 0.500000
vt 0.303408 0.500000
vt 0.307265 0.500000
vt 0.311159 0.500000
vt 0.322580 0.500000
vt 0.329129 0.500000
vt 0.339580 0.500000
vt 0.345477 0.500000
vt 0.358837 0.500000
vt 0.366464 0.500000
vt 0.362262 0.500000
vt 0.342462 0.500000
vt 0.326103 0.500000
vt 0.625000 0.409820
vt 0.500000 0.409784
vt 0.500000 0.417935
vt 0.625000 0.417921
vt 0.625000 0.428071
vt 0.500000 0.428203
vt 0.625000 0.432356
vt 0.500000 0.432311
vt 0.500000 0.436477
vt 0.625000 0.436704
vt 0.625000 0.446539
vt 0.500000 0.447069
vt 0.625000 0.451101
vt 0.500000 0.451091
vt 0.500000 0.454874
vt 0.625000 0.455822
vt 0.625000 0.463913
vt 0.500000 0.464303
vt 0.625000 0.467363
vt 0.500000 0.467421
vt 0.500000 0.471428
vt 0.625000 0.472514
vt 0.625000 0.482716
vt 0.500000 0.483283
vt 0.625000 0.487093
vt 0.500000 0.487161
vt 0.500000 0.492046
vt 0.625000 0.493051
vt 0.375000 0.409985
vt 0.375000 0.417787
vt 0.375000 0.428408
vt 0.375000 0.432265
vt 0.375000 0.436159
vt 0.375000 0.447580
vt 0.375000 0.451103
vt 0.375000 0.454129
vt 0.375000 0.464580
vt 0.375000 0.467462
vt 0.375000 0.470477
vt 0.375000 0.483837
vt 0.375000 0.487262
vt 0.375000 0.491464
vt 0.637907 0.500000
vt 0.652486 0.500000
vt 0.657637 0.500000
vt 0.669178 0.500000
vt 0.673899 0.500000
vt 0.688296 0.500000
vt 0.692644 0.500000
vt 0.707079 0.500000
vt 0.715181 0.500000
vt 0.716461 0.500000
vt 0.696929 0.500000
vt 0.678461 0.500000
vt 0.661087 0.500000
vt 0.642284 0.500000
vn 0.9998 0.0000 0.0192
vn 0.5295 -0.0404 -0.8474
vn -0.4671 0.0000 0.8842
vn 0.3725 0.0000 0.9280
vn 0.0584 -0.9937 0.0958
vn 0.1946 0.9805 -0.0267
vn -0.0583 0.9931 -0.1021
vn 0.1235 0.9858 -0.1136
vn 0.2640 0.9629 -0.0559
vn -0.1946 -0.9805 0.0267
vn -0.2526 -0.9650 0.0710
vn 0.1370 -0.9699 0.2014
vn -0.1488 0.0000 0.9889
vn -0.4618 -0.0531 0.8854
vn -0.8946 -0.2052 -0.3969
vn -0.9140 0.0000 -0.4057
vn 0.5125 -0.0753 -0.8554
vn -0.4149 0.0000 -0.9099
vn 1.0000 0.0000 0.0000
vn -0.1039 0.9585 -0.2655
vn -0.0552 -0.9838 0.1704
vn -0.0150 -0.0122 -0.9998
vn -0.0066 -0.0290 -0.9996
vn -0.1846 -0.9765 0.1115
vn 0.6117 -0.7523 0.2447
vn 0.1001 -0.9416 0.3216
vn -0.0251 -0.9319 0.3617
vn 0.0677 -0.9371 0.3424
vn 0.0685 -0.9314 0.3574
vn 0.0585 -0.9575 0.2825
vn 0.0292 -0.9945 0.1008
vn 0.0279 -0.9846 0.1725
vn 0.0900 -0.9546 0.2840
vn 0.0544 -0.9300 0.3634
vn -0.8191 -0.0323 -0.5728
vn -0.1981 0.0001 -0.9802
vn -0.6623 0.0169 -0.7490
vn -0.1766 -0.0023 -0.9843
vn -0.8492 0.2026 -0.4877
vn -0.1729 0.0050 -0.9849
vn -0.7829 0.1839 -0.5943
vn -0.1304 -0.0587 -0.9897
vn -0.5924 0.1178 -0.7970
vn -0.2529 0.0244 -0.9672
vn -0.8296 -0.2283 -0.5096
vn -0.1980 0.0000 -0.9802
vn -0.6629 0.0352 -0.7479
vn -0.1789 -0.0013 -0.9839
vn -0.8615 0.1873 -0.4720
vn -0.1774 0.0034 -0.9841
vn -0.7815 0.1804 -0.5972
vn -0.1095 -0.0539 -0.9925
vn -0.6074 0.1147 -0.7861
vn -0.3094 -0.3931 -0.8658
vn -0.0504 0.9856 -0.1613
vn -0.0733 0.9968 -0.0325
vn -0.0643 0.9544 -0.2916
vn -0.0537 0.9292 -0.3656
vn -0.0361 0.9385 -0.3435
vn -0.2660 0.9199 -0.2881
vn -0.1093 0.9570 -0.2687
vn -0.3584 0.8800 -0.3118
vn -0.0662 0.9373 -0.3423
vn -0.0728 0.9314 -0.3566
vn 0.0195 0.9627 -0.2700
vn 0.9847 -0.1739 -0.0138
vn 0.9911 0.0554 -0.1213
vn -0.0373 -0.9781 0.2047
vn -0.0272 0.9720 -0.2334
vn 0.8281 0.1144 -0.5488
vn 0.8252 0.0933 -0.5570
vn 0.2056 -0.8813 0.4256
vn -0.0748 0.9448 -0.3191
vn 0.7072 0.1697 -0.6863
vn 0.6530 0.1827 -0.7350
vn 0.2671 -0.8741 0.4058
vn -0.0977 0.9308 -0.3521
vn -0.0032 -0.9421 0.3353
vn -0.0509 0.9352 -0.3506
vn 0.7561 -0.0894 -0.6484
vn 0.6923 -0.0185 -0.7214
vn -0.2496 -0.9647 -0.0835
vn 0.4109 -0.1905 -0.8916
vn 0.3845 0.0809 -0.9196
vn -0.0477 0.9648 -0.2588
vn -0.9998 0.0000 0.0192
vn -0.5295 -0.0404 -0.8474
vn 0.4671 0.0000 0.8842
vn -0.3725 0.0000 0.9280
vn -0.0584 -0.9937 0.0958
vn -0.1946 0.9805 -0.0267
vn 0.0583 0.9931 -0.1021
vn -0.1235 0.9858 -0.1136
vn -0.2640 0.9629 -0.0559
vn 0.1946 -0.9805 0.0267
vn 0.2526 -0.9650 0.0710
vn -0.1370 -0.9699 0.2014
vn 0.1488 0.0000 0.9889
vn 0.4618 -0.0531 0.8854
vn 0.8946 -0.2052 -0.3969
vn 0.9140 0.0000 -0.4057
vn -0.5125 -0.0753 -0.8554
vn 0.4149 0.0000 -0.9099
vn -1.0000 0.0000 0.0000
vn 0.1039 0.9585 -0.2655
vn 0.0552 -0.9838 0.1704
vn 0.0150 -0.0122 -0.9998
vn 0.0066 -0.0290 -0.9996
vn 0.1846 -0.9765 0.1115
vn -0.6117 -0.7523 0.2447
vn -0.1001 -0.9416 0.3216
vn 0.0251 -0.9319 0.3617
vn -0.0677 -0.9371 0.3424
vn -0.0685 -0.9314 0.3574
vn -0.0585 -0.9575 0.2825
vn -0.0292 -0.9945 0.1008
vn -0.0279 -0.9846 0.1725
vn -0.0900 -0.9546 0.2840
vn -0.0544 -0.9300 0.3634
vn 0.8191 -0.0323 -0.5728
vn 0.1981 0.0001 -0.9802
vn 0.6623 0.0169 -0.7490
vn 0.1766 -0.0023 -0.9843
vn 0.8492 0.2026 -0.4877
vn 0.1729 0.0050 -0.9849
vn 0.7829 0.1839 -0.5943
vn 0.1304 -0.0587 -0.9897
vn 0.5924 0.1178 -0.7970
vn 0.2529 0.0244 -0.9672
vn 0.8296 -0.2283 -0.5096
vn 0.1980 0.0000 -0.9802
vn 0.6629 0.0352 -0.7479
vn 0.1789 -0.0013 -0.9839
vn 0.8615 0.1873 -0.4720
vn 0.1774 0.0034 -0.9841
vn 0.7815 0.1804 -0.5972
vn 0.1095 -0.0539 -0.9925
vn 0.6074 0.1147 -0.7861
vn 0.3094 -0.3931 -0.8658
vn 0.0504 0.9856 -0.1613
vn 0.0733 0.9968 -0.0325
vn 0.0643 0.9544 -0.2916
vn 0.0537 0.9292 -0.3656
vn 0.0361 0.9385 -0.3435
vn 0.2660 0.9199 -0.2881
vn 0.1093 0.9570 -0.2687
vn 0.3584 0.8800 -0.3118
vn 0.0662 0.9373 -0.3423
vn 0.0728 0.9314 -0.3566
vn -0.0195 0.9627 -0.2700
vn -0.9847 -0.1739 -0.0138
vn -0.9911 0.0554 -0.1213
vn 0.0373 -0.9781 0.2047
vn 0.0272 0.9720 -0.2334
vn -0.8281 0.1144 -0.5488
vn -0.8252 0.0933 -0.5570
vn -0.2056 -0.8813 0.4256
vn 0.0748 0.9448 -0.3191
vn -0.7072 0.1697 -0.6863
vn -0.6530 0.1827 -0.7350
vn -0.2671 -0.8741 0.4058
vn 0.0977 0.9308 -0.3521
vn 0.0032 -0.9421 0.3353
vn 0.0509 0.9352 -0.3506
vn -0.7561 -0.0894 -0.6484
vn -0.6923 -0.0185 -0.7214
vn 0.2496 -0.9647 -0.0835
vn -0.4109 -0.1905 -0.8916
vn -0.3845 0.0809 -0.9196
vn 0.0477 0.9648 -0.2588
usemtl None
s off
f 26/1/1 12/2/1 4/3/1 11/4/1
f 25/5/2 28/6/2 31/7/2 14/8/2
f 24/9/3 18/10/3 6/11/3 17/12/3
f 23/13/4 10/14/4 2/15/4 20/16/4
f 22/17/5 19/18/5 5/19/5 16/20/5 32/21/5 33/22/5 34/23/5 35/24/5
f 21/25/6 20/26/6 2/27/6 11/28/6
f 17/12/7 6/11/7 20/26/7 21/25/7 56/29/7 77/30/7 57/31/7 79/32/7 58/33/7 85/34/7 59/35/7 88/36/7 60/37/7
f 8/38/8 60/37/8 70/39/8
f 14/40/9 21/25/9 11/28/9 4/41/9
f 9/42/10 1/43/10 19/18/10 22/17/10 27/44/10
f 3/45/11 9/42/11 27/44/11 30/46/11 13/47/11
f 13/47/12 30/46/12 29/48/12
f 19/49/4 1/50/4 10/14/4 23/13/4
f 5/19/13 19/49/13 23/13/13 18/10/13
f 18/10/13 23/13/13 20/16/13 6/11/13
f 16/20/14 5/19/14 18/10/14 24/9/14
f 7/51/15 16/20/15 24/9/15 15/52/15
f 15/52/16 24/9/16 17/12/16 8/38/16
f 13/53/17 29/54/17 28/6/17 25/5/17
f 3/55/18 13/53/18 25/5/18 12/2/18
f 12/2/18 25/5/18 14/8/18 4/3/18
f 9/56/1 3/55/1 12/2/1 26/1/1
f 1/57/19 9/56/19 26/1/19 10/58/19
f 10/58/19 26/1/19 11/4/19 2/59/19
f 21/25/20 14/40/20 31/60/20
f 30/46/21 22/17/21 55/61/21 29/48/21
f 28/6/22 36/62/22 61/63/22 31/7/22
f 29/54/23 55/64/23 36/62/23 28/6/23
f 27/44/24 22/17/24 30/46/24
f 22/17/25 54/65/25 72/66/25
f 54/65/26 22/17/26 35/24/26 53/67/26
f 35/24/27 52/68/27 74/69/27
f 52/68/28 35/24/28 34/23/28 51/70/28
f 34/23/29 33/22/29 49/71/29 50/72/29
f 33/22/30 32/21/30 47/73/30 48/74/30
f 32/21/31 16/20/31 7/51/31 46/75/31
f 46/75/32 87/76/32 32/21/32
f 48/74/33 84/77/33 33/22/33
f 50/72/34 80/78/34 34/23/34
f 36/62/35 73/79/35 71/80/35 61/63/35
f 37/81/36 38/82/36 63/83/36 62/84/36
f 38/82/37 75/85/37 76/86/37 63/83/37
f 39/87/38 40/88/38 65/89/38 64/90/38
f 40/88/39 81/91/39 78/92/39 65/89/39
f 41/93/40 42/94/40 67/95/40 66/96/40
f 42/94/41 83/97/41 82/98/41 67/95/41
f 43/99/42 44/100/42 69/101/42 68/102/42
f 44/100/43 86/103/43 89/104/43 69/101/43
f 45/105/44 15/52/44 8/38/44 70/106/44
f 55/64/45 72/107/45 73/79/45 36/62/45
f 54/108/46 53/109/46 38/82/46 37/81/46
f 53/109/47 74/110/47 75/85/47 38/82/47
f 52/111/48 51/112/48 40/88/48 39/87/48
f 51/112/49 80/113/49 81/91/49 40/88/49
f 50/114/50 49/115/50 42/94/50 41/93/50
f 49/115/51 84/116/51 83/97/51 42/94/51
f 48/117/52 47/118/52 44/100/52 43/99/52
f 47/118/53 87/119/53 86/103/53 44/100/53
f 46/120/54 7/51/54 15/52/54 45/105/54
f 70/39/55 60/37/55 88/36/55 89/121/55
f 60/37/56 8/38/56 17/12/56
f 59/35/57 85/34/57 82/122/57 68/123/57
f 58/33/58 79/32/58 78/124/58 66/125/58
f 57/31/59 77/30/59 76/126/59 64/127/59
f 56/29/60 21/25/60 71/128/60 62/129/60
f 21/25/61 31/60/61 61/130/61
f 62/129/62 63/131/62 56/29/62
f 64/127/63 65/132/63 57/31/63
f 66/125/64 67/133/64 58/33/64
f 68/123/65 69/134/65 59/35/65
f 72/107/66 54/108/66 37/81/66 73/79/66
f 73/79/67 37/81/67 62/84/67 71/80/67
f 72/66/68 55/61/68 22/17/68
f 21/25/69 61/130/69 71/128/69
f 74/110/70 52/111/70 39/87/70 75/85/70
f 75/85/71 39/87/71 64/90/71 76/86/71
f 74/69/72 53/67/72 35/24/72
f 77/30/73 56/29/73 63/131/73 76/126/73
f 80/113/74 50/114/74 41/93/74 81/91/74
f 81/91/75 41/93/75 66/96/75 78/92/75
f 80/78/76 51/70/76 34/23/76
f 79/32/77 57/31/77 65/132/77 78/124/77
f 84/77/78 49/71/78 33/22/78
f 85/34/79 58/33/79 67/133/79 82/122/79
f 84/116/80 48/117/80 43/99/80 83/97/80
f 83/97/81 43/99/81 68/102/81 82/98/81
f 87/76/82 47/73/82 32/21/82
f 87/119/83 46/120/83 45/105/83 86/103/83
f 86/103/84 45/105/84 70/106/84 89/104/84
f 88/36/85 59/35/85 69/134/85 89/121/85
f 115/135/86 100/136/86 93/137/86 101/138/86
f 114/139/87 103/140/87 120/141/87 117/142/87
f 113/143/88 106/144/88 95/145/88 107/146/88
f 112/147/89 109/148/89 91/149/89 99/150/89
f 111/151/90 124/152/90 123/153/90 122/154/90 121/155/90 105/156/90 94/157/90 108/158/90
f 110/159/91 100/160/91 91/161/91 109/162/91
f 106/144/92 149/163/92 177/164/92 148/165/92 174/166/92 147/167/92 168/168/92 146/169/92 166/170/92 145/171/92 110/159/92 109/162/92 95/145/92
f 97/172/93 159/173/93 149/163/93
f 103/174/94 93/175/94 100/160/94 110/159/94
f 98/176/95 116/177/95 111/151/95 108/158/95 90/178/95
f 92/179/96 102/180/96 119/181/96 116/177/96 98/176/96
f 102/180/97 118/182/97 119/181/97
f 108/183/89 112/147/89 99/150/89 90/184/89
f 94/157/98 107/146/98 112/147/98 108/183/98
f 107/146/98 95/145/98 109/148/98 112/147/98
f 105/156/99 113/143/99 107/146/99 94/157/99
f 96/185/100 104/186/100 113/143/100 105/156/100
f 104/186/101 97/172/101 106/144/101 113/143/101
f 102/187/102 114/139/102 117/142/102 118/188/102
f 92/189/103 101/138/103 114/139/103 102/187/103
f 101/138/103 93/137/103 103/140/103 114/139/103
f 98/190/86 115/135/86 101/138/86 92/189/86
f 90/191/104 99/192/104 115/135/104 98/190/104
f 99/192/104 91/193/104 100/136/104 115/135/104
f 110/159/105 120/194/105 103/174/105
f 119/181/106 118/182/106 144/195/106 111/151/106
f 117/142/107 120/141/107 150/196/107 125/197/107
f 118/188/108 117/142/108 125/197/108 144/198/108
f 116/177/109 119/181/109 111/151/109
f 111/151/110 161/199/110 143/200/110
f 143/200/111 142/201/111 124/152/111 111/151/111
f 124/152/112 163/202/112 141/203/112
f 141/203/113 140/204/113 123/153/113 124/152/113
f 123/153/114 139/205/114 138/206/114 122/154/114
f 122/154/115 137/207/115 136/208/115 121/155/115
f 121/155/116 135/209/116 96/185/116 105/156/116
f 135/209/117 121/155/117 176/210/117
f 137/207/118 122/154/118 173/211/118
f 139/205/119 123/153/119 169/212/119
f 125/197/120 150/196/120 160/213/120 162/214/120
f 126/215/121 151/216/121 152/217/121 127/218/121
f 127/218/122 152/217/122 165/219/122 164/220/122
f 128/221/123 153/222/123 154/223/123 129/224/123
f 129/224/124 154/223/124 167/225/124 170/226/124
f 130/227/125 155/228/125 156/229/125 131/230/125
f 131/230/126 156/229/126 171/231/126 172/232/126
f 132/233/127 157/234/127 158/235/127 133/236/127
f 133/236/128 158/235/128 178/237/128 175/238/128
f 134/239/129 159/240/129 97/172/129 104/186/129
f 144/198/130 125/197/130 162/214/130 161/241/130
f 143/242/131 126/215/131 127/218/131 142/243/131
f 142/243/132 127/218/132 164/220/132 163/244/132
f 141/245/133 128/221/133 129/224/133 140/246/133
f 140/246/134 129/224/134 170/226/134 169/247/134
f 139/248/135 130/227/135 131/230/135 138/249/135
f 138/249/136 131/230/136 172/232/136 173/250/136
f 137/251/137 132/233/137 133/236/137 136/252/137
f 136/252/138 133/236/138 175/238/138 176/253/138
f 135/254/139 134/239/139 104/186/139 96/185/139
f 159/173/140 178/255/140 177/164/140 149/163/140
f 149/163/141 106/144/141 97/172/141
f 148/165/142 157/256/142 171/257/142 174/166/142
f 147/167/143 155/258/143 167/259/143 168/168/143
f 146/169/144 153/260/144 165/261/144 166/170/144
f 145/171/145 151/262/145 160/263/145 110/159/145
f 110/159/146 150/264/146 120/194/146
f 151/262/147 145/171/147 152/265/147
f 153/260/148 146/169/148 154/266/148
f 155/258/149 147/167/149 156/267/149
f 157/256/150 148/165/150 158/268/150
f 161/241/151 162/214/151 126/215/151 143/242/151
f 162/214/152 160/213/152 151/216/152 126/215/152
f 161/199/153 111/151/153 144/195/153
f 110/159/154 160/263/154 150/264/154
f 163/244/155 164/220/155 128/221/155 141/245/155
f 164/220/156 165/219/156 153/222/156 128/221/156
f 163/202/157 124/152/157 142/201/157
f 166/170/158 165/261/158 152/265/158 145/171/158
f 169/247/159 170/226/159 130/227/159 139/248/159
f 170/226/160 167/225/160 155/228/160 130/227/160
f 169/212/161 123/153/161 140/204/161
f 168/168/162 167/259/162 154/266/162 146/169/162
f 173/211/163 122/154/163 138/206/163
f 174/166/164 171/257/164 156/267/164 147/167/164
f 173/250/165 172/232/165 132/233/165 137/251/165
f 172/232/166 171/231/166 157/234/166 132/233/166
f 176/210/167 121/155/167 136/208/167
f 176/253/168 175/238/168 134/239/168 135/254/168
f 175/238/169 178/237/169 159/240/169 134/239/169
f 177/164/170 178/255/170 158/268/170 148/165/170
o Cube.001_Cube
v 0.338563 -0.276549 -1.257576
v 0.338563 0.276549 -1.257576
v 0.338563 -0.276549 0.732796
v 0.338563 0.276549 0.732796
v -0.338563 -0.276549 -1.257576
v -0.338563 0.276549 -1.257576
v -0.338563 -0.276549 0.732796
v -0.338563 0.276549 0.732796
v 0.000000 -0.276549 1.061774
v 0.000000 0.276549 1.061774
v 0.000000 -0.276549 -1.257576
v 0.000000 0.276549 -1.257576
vt 0.375000 0.000000
vt 0.625000 0.000000
vt 0.625000 0.250000
vt 0.375000 0.250000
vt 0.375000 0.375000
vt 0.625000 0.375000
vt 0.625000 0.500000
vt 0.375000 0.500000
vt 0.625000 0.750000
vt 0.375000 0.750000
vt 0.375000 0.875000
vt 0.625000 0.875000
vt 0.625000 1.000000
vt 0.375000 1.000000
vt 0.250000 0.500000
vt 0.250000 0.750000
vt 0.750000 0.500000
vt 0.875000 0.500000
vt 0.875000 0.750000
vt 0.750000 0.750000
vt 0.125000 0.500000
vt 0.125000 0.750000
vn 1.0000 0.0000 0.0000
vn -0.6969 0.0000 0.7172
vn -1.0000 0.0000 0.0000
vn 0.0000 0.0000 -1.0000
vn 0.0000 -1.0000 0.0000
vn 0.0000 1.0000 0.0000
vn 0.6969 0.0000 0.7172
usemtl None
s off
f 179/269/171 180/270/171 182/271/171 181/272/171
f 187/273/172 188/274/172 186/275/172 185/276/172
f 185/276/173 186/275/173 184/277/173 183/278/173
f 189/279/174 190/280/174 180/281/174 179/282/174
f 187/283/175 185/276/175 183/278/175 189/284/175
f 188/285/176 182/286/176 180/287/176 190/288/176
f 186/275/176 188/285/176 190/288/176 184/277/176
f 181/289/175 187/283/175 189/284/175 179/290/175
f 183/278/174 184/277/174 190/280/174 189/279/174
f 181/272/177 182/271/177 188/274/177 187/273/177
